# xmcd
# 
# Track frame offsets:
#     150
#     17974
#     31742
#     49967
#     67791
# 
# Disc length: 1084
# 
# Revision: 0
# Processed by: cddbd v1.5.2PL0 Copyright (c) Steve Scherf et al.
# Submitted via: BonkEnc v1.0.8
# 
DISCID=37043a05
DTITLE=AAA - ソウルエッジボーイ/キモノジェットガール
DYEAR=2006
DGENRE=JPop
TTITLE0=ソウルエッジボーイ
TTITLE1=キモノジェットガール
TTITLE2=Friday Party(Live version)
TTITLE3=ソウルエッジボーイ(Instumental)
TTITLE4=キモノジェットガール(instumental)
EXTD=
EXTT0=
EXTT1=
EXTT2=
EXTT3=
EXTT4=
PLAYORDER=
